<svg preserveAspectRatio="none" width="100%" height="100%" overflow="visible" style="display: block;" viewBox="0 0 11.9999 12.0003" fill="none" xmlns="http://www.w3.org/2000/svg">
<path id="Vector" d="M4.04254 0.229555C4.52425 0.031364 5.04867 -0.0402414 5.56588 0.0215553C6.23254 0.098222 6.82654 0.381555 7.34788 0.871555C7.35454 0.878222 7.36388 0.882889 7.37254 0.885555C7.38196 0.887872 7.3918 0.887872 7.40121 0.885555C8.07898 0.710528 8.79642 0.7753 9.43188 1.06889L9.46321 1.08356L9.54054 1.12156C10.2057 1.45869 10.7246 2.02757 10.9992 2.72089C11.1385 3.06089 11.2079 3.41489 11.2092 3.78422C11.2192 4.0589 11.1891 4.33357 11.1199 4.59956C11.1165 4.61298 11.1165 4.62706 11.12 4.64046C11.1235 4.65387 11.1303 4.66617 11.1399 4.67622C11.5359 5.08089 11.7985 5.56289 11.9285 6.12289C12.1212 7.07289 11.9239 7.92956 11.3372 8.69222L11.2465 8.80289C10.858 9.24766 10.348 9.56927 9.77921 9.72822C9.76687 9.73184 9.75555 9.73831 9.74617 9.74711C9.73679 9.75591 9.72961 9.7668 9.72521 9.77889C9.59788 10.1462 9.46988 10.4609 9.23188 10.7749C8.63188 11.5662 7.75054 12.0056 6.75788 12.0002C5.96654 11.9962 5.26521 11.7069 4.65321 11.1322C4.644 11.1236 4.63267 11.1176 4.62037 11.1148C4.60807 11.112 4.59525 11.1125 4.58321 11.1162C4.32454 11.1996 4.06321 11.2116 3.78054 11.2082C3.33032 11.2046 2.88685 11.0984 2.48388 10.8976C2.06176 10.6884 1.69425 10.3836 1.41054 10.0076C1.30921 9.87289 1.20854 9.74622 1.13454 9.59622C1.03352 9.39039 0.950974 9.17599 0.887877 8.95556C0.754678 8.45397 0.751466 7.92672 0.878544 7.42356C0.882723 7.41158 0.884091 7.39881 0.882544 7.38622C0.880261 7.37385 0.873929 7.3626 0.864544 7.35422C0.556589 7.04251 0.321215 6.66669 0.17521 6.25356C0.0781108 5.99908 0.021643 5.73091 0.00787704 5.45889C-0.0163423 5.10061 0.0153708 4.74074 0.101877 4.39222C0.326544 3.65089 0.756544 3.06889 1.39054 2.64689C1.53188 2.55289 1.66588 2.47956 1.79121 2.42689C1.93454 2.36756 2.07788 2.31756 2.22188 2.27556C2.23217 2.27236 2.24151 2.26668 2.24907 2.259C2.25663 2.25132 2.26218 2.24189 2.26521 2.23156C2.37455 1.83892 2.56258 1.47261 2.81788 1.15489C3.1397 0.746228 3.56152 0.427511 4.04254 0.229555ZM6.36388 7.27289C6.25554 7.27897 6.15363 7.32629 6.07908 7.40514C6.00453 7.48398 5.963 7.58838 5.963 7.69689C5.963 7.8054 6.00453 7.90979 6.07908 7.98864C6.15363 8.06749 6.25554 8.11481 6.36388 8.12089H8.78788C8.84556 8.12412 8.90329 8.11556 8.95755 8.09571C9.0118 8.07587 9.06144 8.04516 9.10342 8.00547C9.1454 7.96578 9.17884 7.91794 9.20169 7.86488C9.22454 7.81182 9.23633 7.75466 9.23633 7.69689C9.23633 7.63912 9.22454 7.58195 9.20169 7.5289C9.17884 7.47584 9.1454 7.428 9.10342 7.38831C9.06144 7.34862 9.0118 7.31791 8.95755 7.29807C8.90329 7.27822 8.84556 7.26965 8.78788 7.27289H6.36388ZM3.64121 4.15356C3.58352 4.05959 3.49154 3.99175 3.38473 3.96438C3.27791 3.93701 3.16464 3.95225 3.06887 4.00689C2.9731 4.06154 2.90233 4.15129 2.87154 4.25716C2.84075 4.36304 2.85234 4.47674 2.90388 4.57422L3.75188 6.05689L2.90788 7.48089C2.87947 7.52882 2.86078 7.58188 2.85287 7.63704C2.84497 7.69219 2.84801 7.74836 2.86181 7.80235C2.87562 7.85633 2.89992 7.90706 2.93333 7.95165C2.96674 7.99624 3.00861 8.03381 3.05654 8.06222C3.10448 8.09063 3.15753 8.10932 3.21269 8.11723C3.26785 8.12513 3.32402 8.12209 3.378 8.10829C3.43198 8.09448 3.48272 8.07018 3.52731 8.03677C3.5719 8.00336 3.60947 7.96149 3.63788 7.91356L4.60721 6.27689C4.64543 6.21241 4.66587 6.13896 4.66646 6.06401C4.66704 5.98905 4.64775 5.91529 4.61054 5.85022L3.64121 4.15356Z" fill="url(#paint0_linear_0_5600)"/>
<defs>
<linearGradient id="paint0_linear_0_5600" x1="5.99988" y1="0.000221995" x2="5.99988" y2="12.0002" gradientUnits="userSpaceOnUse">
<stop stop-color="#B1A7FF"/>
<stop offset="0.5" stop-color="#7A9DFF"/>
<stop offset="1" stop-color="#3941FF"/>
</linearGradient>
</defs>
</svg>
